<svg id="Laag_1" data-name="Laag 1" xmlns="http://www.w3.org/2000/svg" viewBox="0 0 162.3 113.94"><defs><style>.cls-1{fill:#1d1d1b;}</style></defs><polygon class="cls-1" points="130.37 45.86 127.15 45.86 127.15 48.5 130.89 48.5 130.89 49.3 126.17 49.3 126.17 41.87 130.84 41.87 130.84 42.67 127.15 42.67 127.15 45.06 130.37 45.06 130.37 45.86"/><path class="cls-1" d="M354.79,179.69a4.63,4.63,0,0,1-1.84-.89,1.71,1.71,0,0,1-.57-1.3,1.81,1.81,0,0,1,.7-1.46,2.79,2.79,0,0,1,1.82-.57,3,3,0,0,1,1.37.3,2.23,2.23,0,0,1,.93.81,2.18,2.18,0,0,1,.32,1.14h-1a1.34,1.34,0,0,0-.43-1.06,1.73,1.73,0,0,0-1.21-.39,1.81,1.81,0,0,0-1.13.32,1.06,1.06,0,0,0-.4.89,1,1,0,0,0,.38.77,3.79,3.79,0,0,0,1.31.57,6.29,6.29,0,0,1,1.45.58,2.21,2.21,0,0,1,.78.73,1.86,1.86,0,0,1,.25,1,1.72,1.72,0,0,1-.7,1.45,3,3,0,0,1-1.89.54,3.45,3.45,0,0,1-1.43-.29,2.38,2.38,0,0,1-1-.81,1.94,1.94,0,0,1-.36-1.15h1a1.27,1.27,0,0,0,.49,1.06,2.12,2.12,0,0,0,1.33.39,1.92,1.92,0,0,0,1.19-.31,1,1,0,0,0,.42-.87,1,1,0,0,0-.39-.84,4.29,4.29,0,0,0-1.38-.59" transform="translate(-220.48 -133.7)"/><polygon class="cls-1" points="143.44 42.67 141.06 42.67 141.06 49.3 140.08 49.3 140.08 42.67 137.7 42.67 137.7 41.87 143.44 41.87 143.44 42.67"/><polygon class="cls-1" points="129.03 59.76 128.08 59.76 128.08 53.47 126.18 54.17 126.18 53.31 128.88 52.3 129.03 52.3 129.03 59.76"/><path class="cls-1" d="M354.44,190.2a1.44,1.44,0,0,0,.88-.3,1.65,1.65,0,0,0,.58-.71v-.38a2.59,2.59,0,0,0-.4-1.51,1.24,1.24,0,0,0-2-.11,2.29,2.29,0,0,0,0,2.51,1.15,1.15,0,0,0,1,.5m1.46,0a2.29,2.29,0,0,1-.71.56,1.82,1.82,0,0,1-.9.22,2,2,0,0,1-1.12-.32,2.1,2.1,0,0,1-.74-.89,3.24,3.24,0,0,1,0-2.61,2,2,0,0,1,.8-.91,2.3,2.3,0,0,1,1.21-.32,2.09,2.09,0,0,1,1.74.82,3.56,3.56,0,0,1,.64,2.25v.28a4.84,4.84,0,0,1-.86,3.17,3.31,3.31,0,0,1-2.59,1h-.18v-.8h.2a2.26,2.26,0,0,0,2.48-2.47" transform="translate(-220.48 -133.7)"/><path class="cls-1" d="M360.31,190.2a1.44,1.44,0,0,0,.88-.3,1.72,1.72,0,0,0,.58-.71v-.38a2.59,2.59,0,0,0-.4-1.51,1.24,1.24,0,0,0-2-.11,2,2,0,0,0-.38,1.26,2,2,0,0,0,.36,1.25,1.17,1.17,0,0,0,1,.5m1.45,0a2.25,2.25,0,0,1-.7.56,1.87,1.87,0,0,1-.9.22,2,2,0,0,1-1.12-.32,2,2,0,0,1-.74-.89,3.07,3.07,0,0,1-.26-1.27,3.24,3.24,0,0,1,.28-1.34,2.06,2.06,0,0,1,.81-.91,2.28,2.28,0,0,1,1.21-.32,2.09,2.09,0,0,1,1.74.82,3.62,3.62,0,0,1,.63,2.25v.28a4.84,4.84,0,0,1-.85,3.17,3.33,3.33,0,0,1-2.59,1h-.18v-.8h.2a2.64,2.64,0,0,0,1.79-.61,2.58,2.58,0,0,0,.68-1.86" transform="translate(-220.48 -133.7)"/><path class="cls-1" d="M366.33,186.71a1.21,1.21,0,0,0-.9.34,1.26,1.26,0,0,0-.34.94,1.22,1.22,0,0,0,.34.91,1.19,1.19,0,0,0,.9.35,1.23,1.23,0,0,0,.91-.35,1.38,1.38,0,0,0,0-1.84,1.21,1.21,0,0,0-.89-.35m1.42,4.73a1.35,1.35,0,0,0-.4-1,1.54,1.54,0,0,0-2.05,0,1.35,1.35,0,0,0-.39,1,1.31,1.31,0,0,0,.38,1,1.68,1.68,0,0,0,2.08,0,1.31,1.31,0,0,0,.38-1m.77-3.47a1.77,1.77,0,0,1-.29,1,2,2,0,0,1-.8.68,2.1,2.1,0,0,1,.92.73,1.81,1.81,0,0,1,.34,1.09A1.91,1.91,0,0,1,368,193a2.49,2.49,0,0,1-1.71.57,2.53,2.53,0,0,1-1.72-.57,2,2,0,0,1-.64-1.53,1.87,1.87,0,0,1,.33-1.09,2.09,2.09,0,0,1,.91-.74,1.89,1.89,0,0,1-.78-.67,1.77,1.77,0,0,1-.29-1,1.91,1.91,0,0,1,.61-1.49,2.28,2.28,0,0,1,1.58-.55,2.33,2.33,0,0,1,1.59.55,1.94,1.94,0,0,1,.6,1.49" transform="translate(-220.48 -133.7)"/><path class="cls-1" d="M263,145.89v36.52c0,3.39,1.49,4.6,3.85,4.6s3.86-1.21,3.86-4.6V145.89h7v36.05c0,7.58-3.78,11.9-11.09,11.9s-11.09-4.32-11.09-11.9V145.89Z" transform="translate(-220.48 -133.7)"/><path class="cls-1" d="M292.85,145.35c7.24,0,11,4.33,11,11.9v1.49h-7v-2c0-3.38-1.35-4.67-3.72-4.67s-3.72,1.29-3.72,4.67c0,9.74,14.54,11.57,14.54,25.09,0,7.58-3.78,11.91-11.09,11.91s-11.09-4.33-11.09-11.91V179h7v3.39c0,3.38,1.49,4.59,3.86,4.59s3.85-1.21,3.85-4.59c0-9.74-14.54-11.57-14.54-25.1,0-7.57,3.72-11.9,11-11.9" transform="translate(-220.48 -133.7)"/><rect class="cls-1" x="87.65" y="12.19" width="7.44" height="47.34"/><path class="cls-1" d="M342.56,175.58v6.29c0,7.58-3.78,11.91-11.09,11.91s-11.09-4.33-11.09-11.91V157.25c0-7.57,3.79-11.9,11.09-11.9s11.09,4.33,11.09,11.9v4.6h-7v-5.07c0-3.38-1.49-4.67-3.86-4.67s-3.85,1.29-3.85,4.67v25.57c0,3.38,1.49,4.59,3.85,4.59s3.86-1.21,3.86-4.59v-6.77Z" transform="translate(-220.48 -133.7)"/><polygon class="cls-1" points="30.66 0 23.22 7.8 23.22 61.98 30.66 61.98 30.66 0"/><polygon class="cls-1" points="11.61 20 19.05 12.18 19.05 53.24 11.61 53.24 11.61 20"/><polygon class="cls-1" points="0 15.6 0 78.91 7.44 78.91 7.44 7.79 0 15.6"/><path class="cls-1" d="M266.12,199.22c7.24,0,11,4.32,11,11.9v1.49h-7v-2c0-3.38-1.35-4.67-3.72-4.67s-3.72,1.29-3.72,4.67c0,9.74,14.54,11.56,14.54,25.09,0,7.58-3.78,11.9-11.09,11.9S255,243.32,255,235.74v-2.91h7v3.38c0,3.38,1.49,4.6,3.86,4.6s3.85-1.22,3.85-4.6c0-9.74-14.54-11.56-14.54-25.09,0-7.58,3.72-11.9,11-11.9" transform="translate(-220.48 -133.7)"/><path class="cls-1" d="M303,229.45v6.29c0,7.58-3.79,11.91-11.09,11.91s-11.09-4.33-11.09-11.91V211.12c0-7.57,3.78-11.9,11.09-11.9S303,203.55,303,211.12v4.6h-7v-5.07c0-3.38-1.49-4.67-3.86-4.67s-3.85,1.29-3.85,4.67v25.56c0,3.38,1.48,4.6,3.85,4.6s3.86-1.22,3.86-4.6v-6.76Z" transform="translate(-220.48 -133.7)"/><path class="cls-1" d="M314.35,236.21c0,3.38,1.48,4.67,3.85,4.67s3.86-1.29,3.86-4.67V210.65c0-3.38-1.49-4.67-3.86-4.67s-3.85,1.29-3.85,4.67Zm-7.44-25.09c0-7.58,4-11.9,11.29-11.9s11.3,4.32,11.3,11.9v24.62c0,7.58-4,11.9-11.3,11.9s-11.29-4.32-11.29-11.9Z" transform="translate(-220.48 -133.7)"/><path class="cls-1" d="M341.13,236.21c0,3.38,1.49,4.67,3.86,4.67s3.85-1.29,3.85-4.67V210.65c0-3.38-1.49-4.67-3.85-4.67s-3.86,1.29-3.86,4.67Zm-7.44-25.09c0-7.58,4-11.9,11.3-11.9s11.29,4.32,11.29,11.9v24.62c0,7.58-4,11.9-11.29,11.9s-11.3-4.32-11.3-11.9Z" transform="translate(-220.48 -133.7)"/><polygon class="cls-1" points="140.6 66.06 140.6 113.4 155.76 113.4 162.3 106.64 148.04 106.64 148.04 66.06 140.6 66.06"/><polygon class="cls-1" points="23.22 73.22 23.22 66.06 30.66 66.06 30.66 72.48 23.54 78.88 26.06 73.22 23.22 73.22"/></svg>